<svg width="160" xmlns="http://www.w3.org/2000/svg" height="40.038" fill="none"><g data-testid="freelance-work-logo" style="fill: rgb(0, 0, 0);"><g class="fills" data-testid="svg-rect"><rect width=".94" height="40" class="rect-yte-0" x="44.401" style="fill: rgb(245, 26, 10);" ry=".01" rx=".01"/></g><g data-testid="svg-g" class="wordmark-text-0" style="fill: rgb(0, 0, 0);"><path d="M61.311 3.342h1.472V18.58h-1.391V4.605h-.122l-4.949 10.1h-.634l-5.624-8.903h-.122l.45 12.778H49l.511-15.542h.409l6.442 10.187h.123Zm6.155 15.238h-1.493l5.501-15.238h1.268l5.501 15.238H76.75l-2.536-7.14h-4.642ZM71.74 4.474h-.123l-1.902 6.444h4.315ZM82.639 18.58h-1.39l.511-15.542h.246l10.286 13.235h.122l-.45-12.931h1.391l-.511 15.543h-.246L82.312 5.65h-.122Zm26.646-7.227h-3.783v-.522h5.174v5.92a6.576 6.576 0 0 1-2.303 1.568c-.905.377-1.917.566-3.035.566-1.145 0-2.201-.201-3.169-.601a7.72 7.72 0 0 1-4.225-4.188c-.401-.958-.601-2.003-.601-3.135 0-1.132.2-2.177.601-3.134a7.78 7.78 0 0 1 1.689-2.517 7.8 7.8 0 0 1 2.536-1.676c.968-.397 2.024-.596 3.169-.596.491 0 1.026.036 1.604.109.58.072 1.137.171 1.668.296.532.122.982.27 1.35.444l-.102 1.219h-.123a5.394 5.394 0 0 0-1.963-1.154 7.476 7.476 0 0 0-2.434-.392c-1.281 0-2.406.308-3.374.923-.968.618-1.722 1.482-2.261 2.59-.537 1.112-.806 2.408-.806 3.888s.269 2.775.806 3.884c.539 1.111 1.293 1.975 2.261 2.59.968.618 2.093.927 3.374.927a6.74 6.74 0 0 0 2.201-.348 5.112 5.112 0 0 0 1.746-1.001Zm7.485 7.227h-1.391V3.342h1.391Zm11.615 0h-6.298V3.342h6.237v1.067l-3.579-.501c-.627-.087-1.05-.13-1.268-.13v6.639c.177 0 .6-.022 1.268-.065l3.354-.218v1.001l-3.354-.217a26.71 26.71 0 0 0-1.268-.066v7.293c.246 0 .675-.044 1.288-.131l3.62-.501Zm4.294 0V3.342h2.741c1.445 0 2.567.324 3.366.971.796.645 1.194 1.547 1.194 2.708 0 .9-.248 1.647-.744 2.242-.499.595-1.219.994-2.16 1.198v.13c.9.189 1.636.639 2.209 1.35.572.711 1.002 1.589 1.288 2.634.259.957.515 1.701.769 2.229.251.531.529.913.834 1.145.308.232.674.399 1.096.5v.131h-.838c-.6 0-1.095-.116-1.485-.348-.387-.232-.717-.624-.99-1.176-.272-.551-.531-1.313-.777-2.285-.395-1.495-.92-2.555-1.574-3.179-.655-.623-1.452-.936-2.393-.936h-.123v-.391h.123c2.195 0 3.293-1.074 3.293-3.222 0-2.119-1.03-3.178-3.088-3.178h-1.35V18.58Zm14.52 0h-1.391V3.342h1.391ZM50.697 35.733h-1.39V20.496h6.012v1.066l-3.395-.501c-.613-.087-1.022-.13-1.227-.13v6.813c.218 0 .641-.022 1.268-.065l3.129-.218v1.002l-3.129-.218a21.99 21.99 0 0 0-1.268-.065Zm8.61 0V20.496h2.74c1.445 0 2.567.323 3.366.97.796.645 1.194 1.547 1.194 2.708 0 .9-.248 1.647-.744 2.242-.499.595-1.219.994-2.16 1.198v.13c.9.189 1.636.639 2.209 1.35.572.711 1.002 1.589 1.288 2.634.259.957.515 1.701.769 2.229.251.531.53.913.838 1.145a2.9 2.9 0 0 0 1.092.5v.131h-.838c-.6 0-1.093-.116-1.481-.348-.389-.232-.721-.624-.993-1.176-.273-.551-.532-1.313-.777-2.285-.396-1.495-.921-2.555-1.575-3.178-.654-.624-1.452-.937-2.393-.937h-.122v-.391h.122c2.195 0 3.293-1.074 3.293-3.222 0-2.119-1.03-3.178-3.088-3.178h-1.35v14.715Zm11.697-7.619Za8.55 8.55 0 0 1 .564-3.126 7.725 7.725 0 0 1 1.575-2.525 7.216 7.216 0 0 1 2.372-1.676 7.216 7.216 0 0 1 2.932-.596 7.25 7.25 0 0 1 2.937.596 7.279 7.279 0 0 1 2.372 1.676 7.827 7.827 0 0 1 1.575 2.525c.373.967.56 2.009.56 3.126a8.575 8.575 0 0 1-.56 3.122 7.763 7.763 0 0 1-1.575 2.525 7.204 7.204 0 0 1-5.309 2.277 7.17 7.17 0 0 1-2.932-.601 7.143 7.143 0 0 1-2.372-1.676 7.663 7.663 0 0 1-1.575-2.525 8.514 8.514 0 0 1-.564-3.122Zm1.554 0Zc0 1.48.245 2.775.736 3.884.491 1.111 1.179 1.975 2.065 2.59.887.618 1.916.927 3.088.927 1.173 0 2.202-.309 3.088-.927.886-.615 1.575-1.482 2.066-2.599.49-1.118.736-2.409.736-3.875 0-1.466-.246-2.754-.736-3.866-.491-1.109-1.18-1.975-2.066-2.599-.886-.624-1.915-.936-3.088-.936-1.172 0-2.197.308-3.075.923-.881.618-1.57 1.482-2.066 2.591-.499 1.111-.748 2.407-.748 3.887Zm18.711 7.619h-1.39l.511-15.542h.245l10.286 13.235h.123l-.45-12.93h1.391l-.512 15.542h-.245L90.942 22.803h-.123Zm20.388 0h-1.39V20.931c-.205 0-.627.043-1.268.13l-4.008.545v-1.11h11.942v1.11l-4.008-.545c-.641-.087-1.063-.13-1.268-.13Zm14.888 0h-6.299V20.496h6.237v1.066l-3.578-.501c-.627-.087-1.05-.13-1.268-.13v6.639c.177 0 .6-.022 1.268-.065l3.353-.218v1.001l-3.353-.217a26.71 26.71 0 0 0-1.268-.066v7.293c.245 0 .675-.044 1.288-.131l3.62-.501Zm5.378 0h-1.391l.511-15.542h.246l10.286 13.235h.123l-.45-12.93h1.39l-.511 15.542h-.245l-10.286-13.235h-.123Zm20.224 0h-4.499V20.496h4.499c1.582 0 2.959.319 4.131.957a6.903 6.903 0 0 1 2.74 2.665c.655 1.14.982 2.473.982 3.996 0 1.524-.327 2.855-.982 3.992a6.886 6.886 0 0 1-2.74 2.669c-1.172.639-2.549.958-4.131.958Zm0-14.715Zh-3.108v14.193h3.108c1.977 0 3.522-.624 4.634-1.872 1.11-1.249 1.665-2.99 1.665-5.225 0-2.234-.555-3.976-1.665-5.224-1.112-1.248-2.657-1.872-4.634-1.872Z" text-anchor="none" font-size="none" font-weight="none" font-family="none" style="fill: rgb(245, 26, 10);" class="fills" data-testid="svg-path"/></g><g xmlns:xlink="http://www.w3.org/1999/xlink" xml:space="preserve" class="icon-icon-0" data-testid="svg-svg" style="fill: rgb(0, 0, 0);"><g data-testid="svg-g" style="fill: rgb(0, 0, 0);"><path d="M3.293 37.768a1.024 1.024 0 0 1-.954-1.388l4.235-11.036c.051-.134.13-.255.231-.356L29.696 2.097A5.073 5.073 0 0 1 33.308.601c1.364 0 2.647.531 3.612 1.496l1.021 1.021a5.115 5.115 0 0 1 0 7.225l-22.89 22.891c-.101.101-.223.18-.356.231L3.659 37.7a1.02 1.02 0 0 1-.366.068Zm5.111-11.489L5.069 34.97l8.691-3.335L36.496 8.898a3.07 3.07 0 0 0 0-4.336l-1.021-1.02a3.044 3.044 0 0 0-2.167-.898c-.819 0-1.589.319-2.168.898Z" style="fill: rgb(91, 87, 83);" class="fills" data-testid="svg-path"/><path d="M35.604 12.257c-.271 0-.531-.108-.723-.299L28.08 5.157a1.023 1.023 0 1 1 1.445-1.445l6.801 6.801a1.02 1.02 0 0 1-.722 1.744ZM14.44 33.421a1.022 1.022 0 0 1-1.021-1.022c0-2.187-.564-3.782-1.676-4.74-1.607-1.383-3.924-1.055-3.948-1.051a1.023 1.023 0 0 1-.315-2.019c.131-.021 3.243-.488 5.577 1.506 1.596 1.362 2.405 3.484 2.405 6.304 0 .564-.457 1.022-1.022 1.022Z" style="fill: rgb(91, 87, 83);" class="fills" data-testid="svg-path"/></g><g data-testid="svg-g" style="fill: rgb(0, 0, 0);"><g data-testid="svg-g" style="fill: rgb(0, 0, 0);"><path d="M8.113 6.985a1.023 1.023 0 0 1-.722-1.744l2.345-2.346a1.022 1.022 0 0 1 1.445 1.445L8.836 6.685c-.192.192-.452.3-.723.3ZM10.27 9.142a1.02 1.02 0 0 1-.722-1.744l2.345-2.345a1.022 1.022 0 0 1 1.445 1.444l-2.345 2.346a1.026 1.026 0 0 1-.723.299ZM12.428 11.3a1.02 1.02 0 0 1-.722-1.744l2.345-2.346a1.022 1.022 0 0 1 1.445 1.445L13.15 11c-.191.192-.451.3-.722.3ZM14.585 13.457a1.023 1.023 0 0 1-.722-1.744l2.345-2.345a1.022 1.022 0 0 1 1.445 1.445l-2.345 2.345a1.026 1.026 0 0 1-.723.299ZM16.743 15.615a1.023 1.023 0 0 1-.723-1.745l2.345-2.345a1.022 1.022 0 0 1 1.445 1.445l-2.345 2.345c-.191.192-.451.3-.722.3ZM25.372 24.245a1.022 1.022 0 0 1-.722-1.745l2.346-2.344a1.02 1.02 0 1 1 1.444 1.445l-2.345 2.345a1.026 1.026 0 0 1-.723.299ZM27.53 26.402a1.02 1.02 0 0 1-.722-1.744l2.345-2.345a1.022 1.022 0 0 1 1.445 1.445l-2.346 2.345a1.022 1.022 0 0 1-.722.299ZM29.76 28.632a1.02 1.02 0 0 1-.722-1.744l2.345-2.345a1.022 1.022 0 0 1 1.445 1.445l-2.346 2.345a1.022 1.022 0 0 1-.722.299ZM31.918 30.79a1.022 1.022 0 0 1-.722-1.744L33.54 26.7a1.022 1.022 0 0 1 1.445 1.445L32.64 30.49c-.191.192-.451.3-.722.3ZM34.075 32.947a1.02 1.02 0 0 1-.723-1.744l2.345-2.345a1.022 1.022 0 0 1 1.446 1.444l-2.345 2.346a1.022 1.022 0 0 1-.723.299Z" style="fill: rgb(91, 87, 83);" class="fills" data-testid="svg-path"/></g><g data-testid="svg-g" style="fill: rgb(0, 0, 0);"><path d="M13.162 21.098c-.271 0-.531-.108-.723-.3L.67 9.028A2.267 2.267 0 0 1 0 7.412c0-.611.238-1.185.67-1.616L5.758.706a2.29 2.29 0 0 1 3.233 0l11.77 11.77a1.022 1.022 0 0 1-1.445 1.445L7.546 2.151a.244.244 0 0 0-.343 0L2.114 7.24a.238.238 0 0 0-.071.172c0 .045.012.112.071.171l11.769 11.77a1.02 1.02 0 0 1-.721 1.745ZM32.626 40.038a2.282 2.282 0 0 1-1.616-.668L19.24 27.599a1.022 1.022 0 0 1 1.445-1.445l11.769 11.77a.243.243 0 0 0 .343.001l5.09-5.09a.237.237 0 0 0 .07-.171.24.24 0 0 0-.07-.172l-11.77-11.77a1.022 1.022 0 0 1 1.445-1.445l11.77 11.77a2.29 2.29 0 0 1 0 3.233l-5.09 5.09a2.282 2.282 0 0 1-1.616.668Z" style="fill: rgb(91, 87, 83);" class="fills" data-testid="svg-path"/></g></g></g></g></svg>