<?xml version="1.0" encoding="UTF-8"?>
<!DOCTYPE svg PUBLIC "-//W3C//DTD SVG 1.1//EN" "http://www.w3.org/Graphics/SVG/1.1/DTD/svg11.dtd">
<svg xmlns="http://www.w3.org/2000/svg" version="1.1" width="418px" height="67px" style="shape-rendering:geometricPrecision; text-rendering:geometricPrecision; image-rendering:optimizeQuality; fill-rule:evenodd; clip-rule:evenodd" xmlns:xlink="http://www.w3.org/1999/xlink">
<g><path style="opacity:0.937" fill="#e00534" stroke="white" stroke-width="1.5" d="M 32.5,-0.5 C 35.5,-0.5 38.5,-0.5 41.5,-0.5C 41.2965,1.39037 41.9632,2.89037 43.5,4C 46.275,4.77834 48.775,4.27834 51,2.5C 52.8928,3.19631 54.7262,4.02964 56.5,5C 56.5661,7.1086 56.8995,9.27526 57.5,11.5C 59.4515,13.533 61.6182,13.8663 64,12.5C 65.6971,14.699 67.1971,17.0324 68.5,19.5C 65.9788,21.2601 65.1455,23.5934 66,26.5C 67.1096,28.0368 68.6096,28.7035 70.5,28.5C 70.8174,31.5719 70.4841,34.5719 69.5,37.5C 64.6725,39.9867 64.3392,42.9867 68.5,46.5C 67.5568,49.4001 65.8901,51.7334 63.5,53.5C 60.7546,52.0247 58.588,52.6913 57,55.5C 56.4054,56.8989 56.5721,58.2322 57.5,59.5C 54.1373,64.4884 50.3039,65.1551 46,61.5C 43.2573,62.0749 41.7573,63.7415 41.5,66.5C 38.5,66.5 35.5,66.5 32.5,66.5C 32.3482,62.5134 30.3482,61.0134 26.5,62C 25.646,63.0217 24.646,63.8551 23.5,64.5C 21.3703,63.5328 19.3703,62.3662 17.5,61C 17.6427,58.9588 17.3094,56.7921 16.5,54.5C 15.5617,53.4471 14.395,52.7804 13,52.5C 11.5838,53.5733 10.2504,53.5733 9,52.5C 8.02964,50.7262 7.19631,48.8928 6.5,47C 8.27834,44.775 8.77834,42.275 8,39.5C 6.89037,37.9632 5.39037,37.2965 3.5,37.5C 3.5,34.5 3.5,31.5 3.5,28.5C 5.39037,28.7035 6.89037,28.0368 8,26.5C 8.54265,23.8302 8.04265,21.3302 6.5,19C 7.11174,16.9423 8.11174,15.109 9.5,13.5C 11.3435,13.2448 13.3435,13.0781 15.5,13C 17.6732,11.1353 18.0066,8.96865 16.5,6.5C 18.28,4.55622 20.4467,3.22289 23,2.5C 25.225,4.27834 27.725,4.77834 30.5,4C 32.0368,2.89037 32.7035,1.39037 32.5,-0.5 Z M 33.5,8.5 C 52.9731,9.13718 62.1397,19.1372 61,38.5C 56.2028,52.6506 46.3694,58.8173 31.5,57C 18.4729,52.4451 12.3062,43.2784 13,29.5C 15.6816,18.3195 22.515,11.3195 33.5,8.5 Z M 30.5,49.5 C 32.7031,45.5949 35.0365,41.7616 37.5,38C 33.8255,34.8314 30.1588,31.6647 26.5,28.5C 32.2152,23.8989 38.2152,20.0656 44.5,17C 41.7101,20.7461 39.0434,24.5794 36.5,28.5C 40.6438,31.4763 44.6438,34.643 48.5,38C 42.613,42.1042 36.613,45.9376 30.5,49.5 Z"/></g>
<g><path style="opacity:0.878" fill="#000000" d="M 83.5,12.5 C 85.4672,12.2606 87.3005,12.5939 89,13.5C 89.4993,18.4889 89.6659,23.4889 89.5,28.5C 94.1667,28.5 98.8333,28.5 103.5,28.5C 103.334,23.4889 103.501,18.4889 104,13.5C 106.592,12.0183 108.925,12.3517 111,14.5C 111.667,26.5 111.667,38.5 111,50.5C 109.64,53.5511 107.473,54.2177 104.5,52.5C 103.505,47.2079 103.172,41.8746 103.5,36.5C 98.8333,36.5 94.1667,36.5 89.5,36.5C 89.666,41.8437 89.4994,47.1771 89,52.5C 85.9141,54.22 83.5808,53.5534 82,50.5C 81.3333,38.8333 81.3333,27.1667 82,15.5C 82.5133,14.4734 83.0133,13.4734 83.5,12.5 Z"/></g>
<g><path style="opacity:0.82" fill="#000000" d="M 117.5,12.5 C 120.547,11.8554 122.713,12.8554 124,15.5C 124.667,27.5 124.667,39.5 124,51.5C 121.333,55.5 118.667,55.5 116,51.5C 115.333,39.1667 115.333,26.8333 116,14.5C 116.717,13.9558 117.217,13.2891 117.5,12.5 Z"/></g>
<g><path style="opacity:0.872" fill="#000000" d="M 212.5,12.5 C 220.84,12.3336 229.173,12.5003 237.5,13C 240.167,15 240.167,17 237.5,19C 230.842,19.4996 224.175,19.6663 217.5,19.5C 217.5,28.5 217.5,37.5 217.5,46.5C 224.175,46.3337 230.842,46.5004 237.5,47C 240.167,49 240.167,51 237.5,53C 229.167,53.6667 220.833,53.6667 212.5,53C 212,52.5 211.5,52 211,51.5C 210.333,39.1667 210.333,26.8333 211,14.5C 211.717,13.9558 212.217,13.2891 212.5,12.5 Z"/></g>
<g><path style="opacity:0.91" fill="#000000" d="M 245.5,12.5 C 249.273,11.8224 252.106,13.1558 254,16.5C 259.667,24.1667 265.333,31.8333 271,39.5C 271.333,30.8333 271.667,22.1667 272,13.5C 274,12.1667 276,12.1667 278,13.5C 278.822,26.742 278.655,39.9086 277.5,53C 275.833,53.6667 274.167,53.6667 272.5,53C 265.88,44.9245 259.38,36.7578 253,28.5C 252.667,36.1667 252.333,43.8333 252,51.5C 249.975,53.7253 247.642,54.0586 245,52.5C 244.187,39.0915 244.353,25.7582 245.5,12.5 Z"/></g>
<g><path style="opacity:0.89" fill="#000000" d="M 298.5,12.5 C 303.179,12.3342 307.845,12.5008 312.5,13C 315.249,14.1227 317.749,15.6227 320,17.5C 321.072,20.5527 320.072,22.5527 317,23.5C 310.535,18.6694 303.868,18.3361 297,22.5C 292.043,30.4354 292.543,37.9354 298.5,45C 303.261,47.7198 308.261,48.2198 313.5,46.5C 313.5,43.5 313.5,40.5 313.5,37.5C 310.813,37.6641 308.146,37.4974 305.5,37C 304.594,35.3005 304.261,33.4672 304.5,31.5C 309.833,31.5 315.167,31.5 320.5,31.5C 320.666,37.8421 320.5,44.1754 320,50.5C 310.322,56.0963 300.822,55.763 291.5,49.5C 285.909,42.8415 284.075,35.1749 286,26.5C 287.926,19.7448 292.093,15.0781 298.5,12.5 Z"/></g>
<g><path style="opacity:0.922" fill="#000000" d="M 329.5,12.5 C 332.044,12.1043 334.211,12.771 336,14.5C 336.667,26.8333 336.667,39.1667 336,51.5C 333.975,53.7253 331.642,54.0586 329,52.5C 328.187,39.0915 328.353,25.7582 329.5,12.5 Z"/></g>
<g><path style="opacity:0.881" fill="#000000" d="M 345.5,12.5 C 348.044,12.1043 350.211,12.771 352,14.5C 358,22.5 364,30.5 370,38.5C 370.333,30.5 370.667,22.5 371,14.5C 373.075,12.3517 375.408,12.0183 378,13.5C 378.822,26.742 378.655,39.9086 377.5,53C 375.5,53.6667 373.5,53.6667 371.5,53C 365,44.5 358.5,36 352,27.5C 351.667,35.8333 351.333,44.1667 351,52.5C 348.861,53.7691 346.695,53.7691 344.5,52.5C 343.354,40.2125 343.187,27.8792 344,15.5C 344.513,14.4734 345.013,13.4734 345.5,12.5 Z"/></g>
<g><path style="opacity:0.885" fill="#000000" d="M 387.5,12.5 C 396.085,12.1834 404.585,12.5168 413,13.5C 413.743,15.4406 413.576,17.2739 412.5,19C 405.842,19.4996 399.175,19.6663 392.5,19.5C 392.5,28.5 392.5,37.5 392.5,46.5C 399.175,46.3337 405.842,46.5004 412.5,47C 413.833,49 413.833,51 412.5,53C 404.167,53.6667 395.833,53.6667 387.5,53C 387,52.5 386.5,52 386,51.5C 385.333,39.1667 385.333,26.8333 386,14.5C 386.717,13.9558 387.217,13.2891 387.5,12.5 Z"/></g>
<g><path style="opacity:0.875" fill="#000000" d="M 128.5,13.5 C 130.792,13.2436 132.959,13.5769 135,14.5C 138.53,23.4229 141.863,32.4229 145,41.5C 149.275,32.6179 153.275,23.6179 157,14.5C 159.916,12.9865 162.582,13.3199 165,15.5C 160.706,28.5946 154.873,41.0946 147.5,53C 142.902,54.0906 140.069,52.2573 139,47.5C 135.109,37.3853 130.943,27.3853 126.5,17.5C 127.18,16.1401 127.847,14.8068 128.5,13.5 Z"/></g>
<g><path style="opacity:0.911" fill="#000000" d="M 169.5,13.5 C 178.5,13.5 187.5,13.5 196.5,13.5C 196.5,15.5 196.5,17.5 196.5,19.5C 189.5,19.5 182.5,19.5 175.5,19.5C 175.5,28.5 175.5,37.5 175.5,46.5C 181.842,46.3338 188.175,46.5005 194.5,47C 196.25,48.7542 196.917,50.9208 196.5,53.5C 187.249,53.8178 178.083,53.4845 169,52.5C 168.187,39.4247 168.354,26.4247 169.5,13.5 Z"/></g>
<g><path style="opacity:0.968" fill="#e00534" d="M 30.5,12.5 C 46.5968,10.3615 55.9302,17.1948 58.5,33C 55.8578,49.8228 46.1911,56.4894 29.5,53C 18.2662,47.6787 14.0996,38.8454 17,26.5C 19.6873,19.981 24.1873,15.3143 30.5,12.5 Z M 30.5,49.5 C 36.613,45.9376 42.613,42.1042 48.5,38C 44.6438,34.643 40.6438,31.4763 36.5,28.5C 39.0434,24.5794 41.7101,20.7461 44.5,17C 38.2152,20.0656 32.2152,23.8989 26.5,28.5C 30.1588,31.6647 33.8255,34.8314 37.5,38C 35.0365,41.7616 32.7031,45.5949 30.5,49.5 Z"/></g>
<g><path style="opacity:0.811" fill="#000000" d="M 225.5,27.5 C 231.456,28.0866 233.289,31.0866 231,36.5C 226.401,39.4563 223.234,38.2896 221.5,33C 222.007,30.4547 223.341,28.6214 225.5,27.5 Z"/></g>
<g><path style="opacity:0.816" fill="#000000" d="M 400.5,27.5 C 406.329,28.1967 408.162,31.1967 406,36.5C 401.114,39.4772 397.947,38.1438 396.5,32.5C 397.127,30.2127 398.46,28.546 400.5,27.5 Z"/></g>
<g><path style="opacity:0.846" fill="#000000" d="M 181.5,28.5 C 189.486,27.998 191.486,31.1647 187.5,38C 179.835,38.5115 177.835,35.3448 181.5,28.5 Z"/></g>
</svg>
