<svg width="239" xmlns="http://www.w3.org/2000/svg" height="55" fill="none"><g data-testid="keychain-logo" style="fill: rgb(0, 0, 0);"><path d="M30.178 1.116c-4.372 2.141-7.661 6.296-8.369 10.662-.166.84-.582 1.679-.957 1.805-.375.168-4.372 1.47-8.91 2.981C2.408 19.67 1.493 20.09.618 21.769c-.749 1.428-.832 4.282-.166 5.583 1.124 2.183 4.246 3.779 6.036 3.065.417-.168.958.126 1.499.798.625.797 1.208 1.049 2.332 1.049 2.539-.042 4.08-1.889 3.622-4.324-.208-1.049-.084-1.553.583-2.141.791-.713 2.539-.629 2.539.168 0 .21.5.924 1.083 1.637.791.966 1.415 1.302 2.456 1.302 1.749 0 3.456-1.428 3.664-3.023.208-1.763.541-1.805 2.165-.378 1.498 1.302 4.787 3.191 4.787 2.771 0-.168-.458-.882-1.04-1.679-1.874-2.435-2.831-5.877-2.582-9.277.25-3.485 1.333-6.046 3.664-8.732 3.622-4.114 8.618-5.583 14.53-4.156l1.041.252-.958-1.05c-.541-.587-1.915-1.595-3.081-2.225C40.961.402 40.045.192 36.672.066c-3.747-.168-4.163-.084-6.494 1.05Z" style="fill: rgb(236, 21, 64);" class="fills" data-testid="svg-path"/><path d="M68.979 6.742c-.541.419-1.082 3.568-2.581 14.314-1.041 7.557-1.79 13.937-1.665 14.147.125.252 1.374.42 2.706.42 2.998 0 3.039-.042 3.747-5.667.292-2.309.666-4.45.833-4.744.166-.378 1.373 1.302 3.331 4.618 1.665 2.855 3.247 5.289 3.496 5.457.25.168 1.833.336 3.498.336 2.414 0 2.997-.126 2.997-.63 0-.377-1.873-3.484-4.163-6.926s-4.163-6.381-4.163-6.507c0-.126 2.747-3.358 6.078-7.178 3.331-3.82 5.954-7.179 5.87-7.431-.208-.629-3.997-.881-5.412-.335-.624.251-3.039 2.896-5.787 6.338-2.581 3.275-4.746 5.71-4.83 5.5-.083-.252.167-2.435.5-4.87.833-5.583.833-6.759 0-7.094-1.124-.42-3.705-.294-4.455.252ZM92.253 6.783c-.584.42-1.083 3.023-2.582 13.518-.999 7.094-1.832 13.475-1.832 14.147v1.175h17.07l.416-1.091c.624-1.638.5-3.401-.25-3.695-.374-.126-2.914-.251-5.662-.251h-4.996l.292-2.645c.457-4.366.083-4.072 5.204-4.072h4.538l.416-1.595c.25-.84.458-1.763.458-2.057 0-.966-1.623-1.386-5.454-1.386h-3.83l.291-2.644c.541-4.828 0-4.408 6.078-4.576 2.957-.084 5.454-.252 5.621-.42.166-.126.458-1.091.666-2.057.625-2.77.291-2.896-8.368-2.896-5.329 0-7.535.168-8.076.545ZM110.821 6.784c-.376.419.249 2.896 2.456 9.739l2.914 9.235-.666 4.492c-.375 2.519-.542 4.701-.417 4.953.375.63 5.038.546 5.537-.126.209-.251.667-2.518 1.041-4.995l.625-4.492 5.287-8.857c2.873-4.828 5.204-9.152 5.121-9.572-.208-1.091-4.038-1.217-5.246-.21-.458.42-2.331 3.527-4.121 6.885l-3.248 6.171-1.623-6.297c-.874-3.442-1.873-6.549-2.207-6.884-.791-.756-4.829-.798-5.453-.042ZM141.296 6.657c-4.58.965-8.952 4.744-10.575 9.151-1.249 3.233-1.041 8.522.458 11.629 2.164 4.575 6.827 7.724 12.073 8.102 2.998.209 6.245-.462 7.036-1.386.666-.797 1.041-6.339.499-6.674-.249-.126-1.332.209-2.456.839-1.665.882-2.415 1.05-4.538.924-7.327-.462-10.491-8.69-5.412-13.979 3.456-3.653 8.244-3.611 12.032.126 1.499 1.427 1.624 1.511 2.165.797.749-1.049 1.249-6.045.666-6.758-.874-1.05-5.246-2.729-7.744-2.939-1.374-.126-3.289-.042-4.204.168ZM158.907 6.742c-.583.419-1.082 3.358-2.623 14.146-1.041 7.473-1.79 13.854-1.665 14.189.166.378.999.546 2.706.546 3.039 0 3.081-.042 3.747-5.457.791-6.507.249-5.877 5.037-5.877 4.122 0 4.164 0 3.956.923-.375 1.721-1.041 7.515-1.041 8.984v1.427h2.664c1.499 0 2.79-.168 2.915-.336.083-.168 1.04-6.548 2.123-14.147 1.79-13.055 1.873-13.853 1.207-14.357-1.082-.797-3.663-.671-4.663.168-.666.588-.957 1.806-1.499 6.003-.374 2.897-.666 5.374-.666 5.542 0 .21-1.915.335-4.205.335h-4.247l.251-1.805c1.207-8.689 1.29-9.991.708-10.368-.917-.588-3.872-.504-4.705.084ZM190.714 6.783c-.791.378-2.54 3.737-7.41 13.938-3.498 7.388-6.329 13.769-6.371 14.146 0 .63.417.756 2.665.756 3.122 0 3.248-.126 4.871-4.198l.999-2.561 4.372.126 4.372.126.416 2.729c.25 1.511.583 2.98.749 3.232.208.336 1.332.546 3.039.546 2.623 0 2.665 0 2.665-1.175 0-.63-1.124-7.053-2.54-14.273-2.415-12.468-2.623-13.182-3.58-13.559-1.375-.504-3.04-.462-4.247.167Zm1.79 11.755c.958 5.751 1.124 5.331-2.081 5.331-1.499 0-2.665-.168-2.582-.336.833-2.183 3.872-9.235 3.955-9.193.042.084.375 1.931.708 4.198ZM207.7 6.909c-.541.63-4.08 24.054-4.122 27.119v1.595h2.707c2.456 0 2.747-.084 3.039-.965.209-.504 1.166-6.927 2.165-14.273 2.082-14.987 2.165-14.147-1.29-14.147-1.25 0-2.124.252-2.499.671ZM217.984 6.783c-.625.462-1.083 2.98-2.623 14.063-1.041 7.43-1.749 13.811-1.624 14.189.167.503.791.587 2.831.503l2.581-.125.292-1.47c.166-.797.707-4.743 1.207-8.773l.958-7.305 2.04 5.625c1.124 3.107 2.539 7.053 3.164 8.774l1.166 3.149 2.997.125c2.79.126 3.04.042 3.414-.839.417-1.008 3.747-24.936 3.747-26.867 0-.881-.25-1.217-1.083-1.427-1.165-.294-3.871.042-4.371.546-.167.168-.708 3.652-1.207 7.682-.5 4.03-1.041 7.766-1.166 8.312-.25.755-.999-.966-3.373-7.472-3.371-9.236-3.371-9.236-6.661-9.236-.832 0-1.873.252-2.289.546ZM40.794 7.287c-1.041.336-2.914 1.469-4.246 2.477-4.455 3.568-6.495 10.369-4.746 15.784l.666 2.099-6.037 6.926c-3.331 3.82-6.412 7.557-6.87 8.312-1.54 2.519-.707 5.961 1.916 7.682 1.332.924 4.787 1.008 5.787.168.374-.336 1.707-.587 2.997-.629 1.874 0 2.457-.21 3.081-1.008 1.041-1.301.999-3.568-.125-5.079-.749-1.05-.833-1.386-.416-2.309.541-1.218 1.915-1.386 3.164-.42 1.332 1.007 3.081.756 4.496-.63 1.083-1.091 1.208-1.511.958-2.644-.5-2.393-.458-2.603.416-2.435.458.084 2.332.168 4.163.21 2.831.042 3.706-.126 5.871-1.134 3.039-1.427 5.537-3.862 7.119-7.01.999-2.057 1.166-2.771 1.166-6.297s-.125-4.282-1.166-6.381c-1.416-2.896-3.664-5.205-6.62-6.842-1.915-1.05-2.748-1.26-5.953-1.344-2.457-.084-4.413.084-5.621.504Zm9.867 6.927c2.915 1.763 3.414 5.709 1.041 8.059-4.288 4.324-11.241-1.343-7.869-6.422 1.666-2.519 4.372-3.191 6.828-1.637Z" fill="var(--splashscreen-text-color)" style="fill: var(--splashscreen-text-color);" class="fills" data-testid="svg-path"/><path d="M141.671 16.312c-1.873 1.134-2.748 2.687-2.748 4.828 0 2.141.875 3.694 2.748 4.827 3.581 2.225 8.201-.503 8.201-4.827s-4.62-7.053-8.201-4.828Z" fill="var(--splashscreen-text-color)" style="fill: var(--splashscreen-text-color);" class="fills" data-testid="svg-path"/><g data-testid="svg-path"><path d="M64.733 46.117h31.855" fill="none" style="fill: none;" class="fills"/><g fill="none" class="strokes"><path d="M64.733 46.117h31.855" style="fill: none; stroke-width: 2.32; stroke: rgb(236, 21, 64); stroke-opacity: 1;" class="stroke-shape"/></g></g><path d="M103.044 40.039c.807 0 1.497.137 2.069.412a2.96 2.96 0 0 1 1.312 1.175c.311.509.466 1.127.466 1.851 0 .422-.067.843-.204 1.264a3.26 3.26 0 0 1-.612 1.146c-.272.343-.641.622-1.107.838-.457.205-1.02.308-1.691.308h-1.53v3.703h-1.704V40.039h3.001Zm.233 5.334c.37 0 .681-.064.933-.191.253-.128.447-.289.583-.485.146-.196.248-.397.306-.602a1.94 1.94 0 0 0 .102-.573c0-.177-.029-.368-.088-.573a1.81 1.81 0 0 0-.291-.603 1.435 1.435 0 0 0-.568-.47c-.243-.127-.554-.191-.933-.191h-1.574v3.688h1.53Zm5.018.029c0-.744.141-1.445.423-2.101a5.715 5.715 0 0 1 1.165-1.748 5.372 5.372 0 0 1 1.72-1.19 5.133 5.133 0 0 1 2.113-.441c.738 0 1.432.147 2.083.441.661.284 1.239.68 1.734 1.19a5.567 5.567 0 0 1 1.18 1.748 5.11 5.11 0 0 1 .437 2.101c0 .754-.145 1.46-.437 2.116a5.567 5.567 0 0 1-1.18 1.748c-.495.5-1.073.892-1.734 1.176a5.313 5.313 0 0 1-2.083.411 5.39 5.39 0 0 1-2.113-.411 5.624 5.624 0 0 1-1.72-1.161 5.524 5.524 0 0 1-1.165-1.734 5.444 5.444 0 0 1-.423-2.145Zm1.748 0c0 .529.093 1.024.277 1.484.195.461.462.867.802 1.22.34.342.734.612 1.18.808a3.59 3.59 0 0 0 1.457.294c.505 0 .977-.098 1.414-.294a3.636 3.636 0 0 0 1.165-.808c.331-.353.588-.759.773-1.22a3.78 3.78 0 0 0 .291-1.484c0-.539-.097-1.038-.291-1.498a4.117 4.117 0 0 0-.787-1.22 3.512 3.512 0 0 0-2.608-1.117c-.515 0-.996.098-1.443.294-.447.196-.84.47-1.18.823-.33.353-.588.764-.773 1.234a3.964 3.964 0 0 0-.277 1.484Zm9.644-5.304h1.982l2.622 7.582-.276-.118 2.04-5.275.787 2.322-2.914 6.626-4.241-11.137Zm5.202 0h1.675l2.915 7.42-.335-.059 2.419-7.361h1.821l-4.138 11.108-4.357-11.108Zm10.487-.059h7.038v1.646h-5.334v2.85h4.751v1.661h-4.751v2.894h5.538v1.646h-7.242V40.039Zm12.578 0a5.22 5.22 0 0 1 1.603.235c.485.147.898.368 1.238.662.341.294.603.656.787 1.087.194.421.292.906.292 1.454 0 .422-.063.843-.189 1.264a3.171 3.171 0 0 1-.627 1.146 2.98 2.98 0 0 1-1.122.823c-.466.206-1.045.308-1.734.308h-1.531v3.718h-1.704V40.039h2.987Zm.233 5.334c.379 0 .695-.059.948-.177.252-.127.446-.284.582-.47.146-.186.248-.382.306-.587.068-.216.102-.417.102-.603 0-.176-.029-.367-.088-.573a1.814 1.814 0 0 0-.291-.602 1.52 1.52 0 0 0-.583-.485c-.242-.127-.548-.191-.918-.191h-1.574v3.688h1.516Zm1.836 1.014 2.71 4.349h-1.966l-2.769-4.305 2.025-.044Zm4.705-6.348h7.038v1.646h-5.332v2.85h4.75v1.661h-4.75v2.894h5.537v1.646h-7.243V40.039Zm9.591 10.697V40.039h3.017c1.059 0 1.957.162 2.696.485.738.314 1.335.74 1.792 1.279.456.528.787 1.121.991 1.777.214.647.321 1.298.321 1.954 0 .804-.142 1.524-.423 2.16a5.067 5.067 0 0 1-1.151 1.646 5.186 5.186 0 0 1-1.69 1.043 5.765 5.765 0 0 1-2.026.353h-3.527Zm1.706-1.646h1.515c.563 0 1.078-.078 1.544-.235.467-.167.87-.402 1.21-.705.35-.314.617-.701.801-1.161.195-.46.292-.984.292-1.572 0-.666-.112-1.234-.335-1.704a3.102 3.102 0 0 0-.86-1.161 3.324 3.324 0 0 0-1.152-.661 3.952 3.952 0 0 0-1.238-.206h-1.777v7.405Zm16.947-9.051c1.078 0 1.929.221 2.55.662.632.44.947 1.116.947 2.027 0 .607-.141 1.127-.422 1.558a2.722 2.722 0 0 1-1.151.984c-.496.225-1.074.348-1.734.367l-.263-.911c.787.01 1.486.137 2.098.382.613.235 1.098.573 1.457 1.014.36.431.539.945.539 1.543 0 .558-.101 1.033-.305 1.425a2.719 2.719 0 0 1-.816.94 3.587 3.587 0 0 1-1.152.544 5.447 5.447 0 0 1-1.34.162h-3.307V40.039h2.899Zm.277 4.555c.505 0 .874-.147 1.108-.441.242-.303.363-.656.363-1.058 0-.489-.15-.847-.451-1.072-.301-.225-.709-.338-1.224-.338h-1.268v2.909h1.472Zm.058 4.555c.36 0 .685-.049.976-.147.292-.108.52-.269.685-.485.175-.225.263-.504.263-.837 0-.373-.102-.662-.307-.867a1.619 1.619 0 0 0-.757-.441 3.573 3.573 0 0 0-.977-.132h-1.413v2.909h1.53Zm8.286-1.881-3.92-7.229h2.084l2.987 5.76-.51.029 2.944-5.789h2.083l-3.977 7.229v3.468h-1.691v-3.468Zm20.756-7.229v10.697h-1.705v-4.54h-5.217v4.54h-1.704V40.039h1.704v4.511h5.217v-4.511h1.705Zm2.914 0h1.705v10.697h-1.705V40.039Zm5.732 0 3.337 8.375-.976-.191 3.103-8.184h2.011l-4.75 11.196-4.75-11.196h2.025Zm9.466 0h7.038v1.646h-5.333v2.85h4.75v1.661h-4.75v2.894h5.537v1.646h-7.242V40.039Z" fill="var(--splashscreen-text-color)" style="fill: var(--splashscreen-text-color);" class="fills" data-testid="svg-path"/></g></svg>