<svg  xmlns="http://www.w3.org/2000/svg" viewBox="0 0 40 40"  fill="currentColor">
    <g data-testid="github-142-svgrepo-com">
        <path d="M20 0c11.046 0 20 9.18 20 20.506 0 9.058-5.724 16.742-13.666 19.456-1.014.202-1.374-.438-1.374-.984 0-.676.024-2.884.024-5.628 0-1.912-.64-3.16-1.358-3.796 4.454-.508 9.134-2.242 9.134-10.118 0-2.24-.776-4.068-2.06-5.504.208-.518.894-2.604-.196-5.428 0 0-1.676-.55-5.494 2.102a18.791 18.791 0 0 0-5.01-.69c-1.7.008-3.41.236-5.006.69-3.822-2.652-5.502-2.102-5.502-2.102-1.086 2.824-.4 4.91-.194 5.428-1.278 1.436-2.06 3.264-2.06 5.504 0 7.856 4.67 9.616 9.112 10.134-.572.512-1.09 1.416-1.27 2.742-1.14.524-4.036 1.43-5.82-1.704 0 0-1.058-1.97-3.066-2.114 0 0-1.95-.026-.136 1.246 0 0 1.31.63 2.22 3 0 0 1.174 3.66 6.738 2.42.01 1.714.028 3.33.028 3.818 0 .542-.368 1.176-1.366.986C5.73 37.254 0 29.566 0 20.506 0 9.18 8.956 0 20 0Z" fill-rule="evenodd"  class="fills" data-testid="svg-path"/>
        </g>
</svg>