<svg width="80" xmlns="http://www.w3.org/2000/svg" height="80" fill="none"><g data-testid="saturn-svgrepo-com" xml:space="preserve" style="fill: rgb(0, 0, 0);"><path d="m19.213 11.42-4.382-2.398-2.399-4.383c-.515-.945-2.069-.945-2.584 0L7.449 9.023 3.066 11.42a1.474 1.474 0 0 0 0 2.586l4.383 2.397 2.399 4.384a1.473 1.473 0 0 0 2.584 0l2.399-4.384 4.382-2.397a1.472 1.472 0 0 0 0-2.586Zm-6.175 2.605a1.473 1.473 0 0 0-.586.585l-1.312 2.399-1.312-2.399a1.479 1.479 0 0 0-.586-.585l-2.399-1.312 2.399-1.312c.248-.135.45-.339.586-.586l1.312-2.398 1.312 2.398c.135.247.338.451.586.586l2.398 1.312-2.398 1.312Z" style="fill: rgb(59, 66, 70); fill-opacity: 1;" class="fills" data-testid="svg-path"/><path d="m76.677 65.937-4.383-2.398-2.399-4.384c-.515-.945-2.069-.945-2.584 0l-2.398 4.384-4.383 2.398a1.472 1.472 0 0 0 0 2.586l4.383 2.397 2.398 4.384a1.473 1.473 0 0 0 2.584 0l2.399-4.384 4.383-2.397a1.475 1.475 0 0 0 0-2.586Zm-6.176 2.604a1.475 1.475 0 0 0-.586.586l-1.312 2.398-1.312-2.398a1.475 1.475 0 0 0-.586-.586l-2.398-1.311 2.398-1.312c.248-.136.451-.339.586-.586l1.312-2.399 1.312 2.399c.136.247.338.45.586.586L72.9 67.23l-2.399 1.311Z" style="fill: rgb(35, 38, 41); fill-opacity: 1;" class="fills" data-testid="svg-path"/><path d="M62.944 54.848a1.473 1.473 0 0 0-2.056.338A25.124 25.124 0 0 1 40.52 65.651a25.073 25.073 0 0 1-12.095-3.108A1.473 1.473 0 0 0 27 65.123a28.034 28.034 0 0 0 13.52 3.475c9.002 0 17.51-4.372 22.762-11.694a1.474 1.474 0 0 0-.338-2.056ZM79.73 30.274c-1.456-5.435-8.472-8.8-19.279-9.274-5.125-5.193-12.229-8.392-19.931-8.392-12.854 0-23.705 8.711-26.978 20.537C3.582 39.16-1.251 45.856.278 51.563c1.621 6.052 10.203 9.337 22.03 9.337 6.605-.001 14.222-1.025 22.202-3.164 22.276-5.968 37.747-18.031 35.22-27.462ZM14.105 49.898a1.475 1.475 0 0 0 2.78-.978 24.975 24.975 0 0 1-1.413-8.317c0-13.812 11.237-25.048 25.048-25.048 12.375 0 23.033 9.221 24.791 21.449.117.803.84 1.36 1.669 1.248a1.474 1.474 0 0 0 1.249-1.668 27.537 27.537 0 0 0-2.334-7.777c3.04.801 4.962 2.089 5.386 3.671.623 2.324-1.858 5.677-6.635 8.969-5.338 3.678-12.901 6.942-21.295 9.192-18.037 4.832-32.006 2.948-33.269-1.763-.412-1.536.494-3.494 2.571-5.623a27.804 27.804 0 0 0 1.452 6.645Zm29.643 4.992C21.691 60.801 4.933 57.547 3.124 50.8c-1.024-3.818 2.621-8.909 9.622-13.65a28.198 28.198 0 0 0-.19 2.23c-.061.038-.122.075-.179.123-5.3 4.458-5.721 7.973-5.141 10.136 1.067 3.98 6.992 6.83 16.832 6.83 5.51 0 12.248-.894 20.045-2.984 8.713-2.334 16.598-5.747 22.205-9.611 6.025-4.152 8.797-8.47 7.809-12.159-.604-2.256-2.859-5.166-10.124-6.306a28.43 28.43 0 0 0-.873-1.267c7.725.773 12.781 3.267 13.754 6.895 1.807 6.747-11.077 17.943-33.136 23.853Z" style="fill: rgb(228, 108, 63); fill-opacity: 1;" class="fills" data-testid="svg-path"/></g></svg>