<svg width="36" xmlns="http://www.w3.org/2000/svg" height="36" fill="none"><g data-testid="flag-for-flag-taiwan-svgrepo-com" class="iconify iconify--twemoji" style="fill: rgb(0, 0, 0);"><path d="M32 5H17v13H0v9a4 4 0 0 0 4 4h28a4 4 0 0 0 4-4V9a4 4 0 0 0-4-4Z" style="fill: rgb(254, 0, 0);" class="fills" data-testid="svg-path"/><path d="M17 5H4a4 4 0 0 0-4 4v9h17V5Zm-6.063 4.61 2.035-.548-1.491 1.487a2.88 2.88 0 0 0-.544-.939Zm.251 1.89a2.439 2.439 0 1 1-4.877-.001 2.439 2.439 0 0 1 4.877.001Zm0-4.222-.548 2.035a2.88 2.88 0 0 0-.939-.544l1.487-1.491ZM8.75 6.625l.542 2.034a2.93 2.93 0 0 0-.542-.052 2.93 2.93 0 0 0-.542.052l.542-2.034Zm-.951 2.144a2.88 2.88 0 0 0-.939.544l-.548-2.035 1.487 1.491Zm-1.236.841a2.88 2.88 0 0 0-.544.939L4.528 9.062l2.035.548Zm-.654 1.348a2.864 2.864 0 0 0 0 1.084L3.875 11.5l2.034-.542Zm.11 1.492c.121.348.308.666.544.939l-2.035.548 1.491-1.487Zm.293 3.272.548-2.035c.273.236.591.423.939.544l-1.487 1.491Zm2.438.653-.542-2.034c.358.069.726.069 1.084 0l-.542 2.034Zm.951-2.144c.348-.121.666-.308.939-.544l.548 2.035-1.487-1.491Zm1.236-.841c.237-.273.423-.591.544-.939l1.491 1.487-2.035-.548Zm.654-1.348a2.864 2.864 0 0 0 0-1.084l2.034.542-2.034.542Z" style="fill: rgb(0, 0, 149);" class="fills" data-testid="svg-path"/><path d="M9.292 8.659 8.75 6.625l-.542 2.034a2.93 2.93 0 0 1 .542-.052c.185 0 .367.019.542.052ZM5.857 11.5c0-.185.018-.367.052-.542l-2.034.542 2.034.542a2.902 2.902 0 0 1-.052-.542Zm2.351 2.841.542 2.034.542-2.034a2.864 2.864 0 0 1-1.084 0Zm3.435-2.841c0 .185-.018.367-.052.542l2.034-.542-2.034-.542c.033.175.052.357.052.542Zm-.455-4.222L9.701 8.769c.348.122.666.308.939.544l.548-2.035Zm-.251 6.112 2.035.548-1.491-1.487a2.88 2.88 0 0 1-.544.939Zm-4.625 2.332 1.487-1.491a2.88 2.88 0 0 1-.939-.544l-.548 2.035Zm.251-6.112-2.035-.548 1.491 1.487c.121-.348.307-.665.544-.939Zm3.138 4.621 1.487 1.491-.548-2.035a2.88 2.88 0 0 1-.939.544ZM6.019 12.45l-1.491 1.487 2.035-.548a2.852 2.852 0 0 1-.544-.939Zm1.78-3.681L6.312 7.278l.548 2.035c.274-.237.591-.423.939-.544Zm5.173.293-2.035.548c.237.273.423.591.544.939l1.491-1.487Z" style="fill: rgb(255, 255, 255);" class="fills" data-testid="svg-path"/><circle cx="8.75" cy="11.5" style="fill: rgb(255, 255, 255);" r="2.438" class="fills" data-testid="svg-circle"/></g></svg>