<svg width="36" xmlns="http://www.w3.org/2000/svg" height="36" fill="none"><g data-testid="flag-for-flag-united-kingdom-svgrepo-com" class="iconify iconify--twemoji" style="fill: rgb(0, 0, 0);"><path d="M0 9.059V13h5.628ZM4.664 31H13v-5.837ZM23 25.164V31h8.335ZM0 23v3.941L5.63 23ZM31.337 5H23v5.837ZM36 26.942V23h-5.631ZM36 13V9.059L30.371 13ZM13 5H4.664L13 10.837Z" style="fill: rgb(0, 36, 125);" class="fills" data-testid="svg-path"/><path d="m25.14 23 9.712 6.801a3.984 3.984 0 0 0 .99-1.749L28.627 23H25.14ZM13 23h-2.141l-9.711 6.8c.521.53 1.189.909 1.938 1.085L13 23.943V23Zm10-10h2.141l9.711-6.8a3.987 3.987 0 0 0-1.937-1.085L23 12.057V13Zm-12.141 0L1.148 6.2a3.996 3.996 0 0 0-.991 1.749L7.372 13h3.487Z" style="fill: rgb(207, 27, 43);" class="fills" data-testid="svg-path"/><path d="M36 21H21v10h2v-5.836L31.335 31H32a3.991 3.991 0 0 0 2.852-1.199L25.14 23h3.487l7.215 5.052c.093-.337.158-.686.158-1.052v-.058L30.369 23H36v-2ZM0 21v2h5.63L0 26.941V27c0 1.091.439 2.078 1.148 2.8l9.711-6.8H13v.943l-9.914 6.941c.294.07.598.116.914.116h.664L13 25.163V31h2V21H0ZM36 9a3.982 3.982 0 0 0-1.148-2.8L25.141 13H23v-.943l9.915-6.942A4.037 4.037 0 0 0 32 5h-.663L23 10.837V5h-2v10h15v-2h-5.629L36 9ZM13 5v5.837L4.664 5H4a3.987 3.987 0 0 0-2.852 1.2l9.711 6.8H7.372L.157 7.949A3.979 3.979 0 0 0 0 9v.059L5.628 13H0v2h15V5h-2Z" style="fill: rgb(238, 238, 238);" class="fills" data-testid="svg-path"/><path d="M21 15V5h-6v10H0v6h15v10h6V21h15v-6Z" style="fill: rgb(207, 27, 43);" class="fills" data-testid="svg-path"/></g></svg>