<svg width="50" xmlns="http://www.w3.org/2000/svg" height="50" fill="none"><g data-testid="united-states-svgrepo-com" xml:space="preserve" style="fill: rgb(0, 0, 0);"><path d="M46.255 8.621H3.745A3.744 3.744 0 0 0 0 12.365v25.27a3.744 3.744 0 0 0 3.745 3.744h42.51A3.745 3.745 0 0 0 50 37.635v-25.27a3.744 3.744 0 0 0-3.745-3.744Z" style="fill: rgb(245, 245, 245);" class="fills" data-testid="svg-path"/><path d="M.206 11.141h49.588a3.745 3.745 0 0 0-3.539-2.52H3.745a3.745 3.745 0 0 0-3.539 2.52Z" style="fill: rgb(255, 75, 85);" class="fills" data-testid="svg-path"/><rect rx="0" ry="0" y="18.7" width="50" height="2.52" style="fill: rgb(255, 75, 85);" class="fills" data-testid="svg-rect"/><rect rx="0" ry="0" y="13.66" width="50" height="2.52" style="fill: rgb(255, 75, 85);" class="fills" data-testid="svg-rect"/><path d="M0 25.398c0 .476.386.862.862.862H50v-2.52H0v1.658Z" style="fill: rgb(255, 75, 85);" class="fills" data-testid="svg-path"/><rect rx="0" ry="0" y="33.82" width="50" height="2.52" style="fill: rgb(255, 75, 85);" class="fills" data-testid="svg-rect"/><path d="M49.794 38.859H.206a3.745 3.745 0 0 0 3.539 2.52h42.51a3.745 3.745 0 0 0 3.539-2.52Z" style="fill: rgb(255, 75, 85);" class="fills" data-testid="svg-path"/><rect rx="0" ry="0" y="28.78" width="50" height="2.52" style="fill: rgb(255, 75, 85);" class="fills" data-testid="svg-rect"/><path d="M.862 26.26h21.552a.862.862 0 0 0 .862-.862V9.483a.862.862 0 0 0-.862-.862H3.745A3.744 3.744 0 0 0 0 12.365v13.033c0 .476.386.862.862.862Z" style="fill: rgb(65, 71, 155);" class="fills" data-testid="svg-path"/><path d="m2.421 10.599.191.573.603.004c.078.001.11.1.048.147l-.486.358.182.575c.024.075-.061.136-.125.091l-.49-.351-.491.351a.082.082 0 0 1-.125-.091l.182-.575-.485-.358a.082.082 0 0 1 .048-.147l.603-.004.191-.573c.024-.074.129-.074.154 0ZM2.421 13.593l.191.572.603.005c.078 0 .11.1.048.146l-.486.359.182.575c.024.074-.061.136-.125.091l-.49-.351-.491.351a.082.082 0 0 1-.125-.091l.182-.575-.485-.358a.082.082 0 0 1 .048-.147l.603-.005.191-.572c.024-.074.129-.074.154 0ZM2.421 16.587l.191.572.603.004c.078.001.11.101.048.147l-.486.358.182.576c.024.074-.061.136-.125.09l-.49-.351-.491.351a.081.081 0 0 1-.125-.09l.182-.575-.485-.359c-.063-.046-.03-.146.048-.147l.603-.004.191-.572c.024-.075.129-.075.154 0ZM2.421 19.58l.191.572.603.005c.078.001.11.1.048.147l-.486.358.182.575c.024.075-.061.136-.125.091l-.49-.351-.491.351a.082.082 0 0 1-.125-.091l.182-.575-.485-.358a.082.082 0 0 1 .048-.147l.603-.005.191-.572c.024-.074.129-.074.154 0ZM2.421 22.574l.191.572.603.004c.078.001.11.101.048.147l-.486.359.182.575c.024.074-.061.136-.125.09l-.49-.35-.491.35a.081.081 0 0 1-.125-.09l.182-.575-.485-.359c-.063-.046-.03-.146.048-.146l.603-.005.191-.572c.024-.074.129-.074.154 0ZM4.744 12.067l.191.572.603.005c.079.001.111.1.048.147l-.485.358.182.575a.082.082 0 0 1-.125.091l-.491-.351-.49.351c-.064.045-.149-.017-.125-.091l.182-.575-.485-.358a.081.081 0 0 1 .047-.147l.603-.005.191-.572c.025-.074.13-.074.154 0ZM4.744 15.061l.191.572.603.004c.079.001.111.101.048.147l-.485.359.182.575a.081.081 0 0 1-.125.09l-.491-.35-.49.35c-.064.046-.149-.016-.125-.09l.182-.575-.485-.359a.081.081 0 0 1 .047-.147l.603-.004.191-.572c.025-.074.13-.074.154 0ZM4.744 18.054l.191.572.603.005c.079.001.111.1.048.147l-.485.358.182.575a.082.082 0 0 1-.125.091l-.491-.351-.49.351c-.064.045-.149-.016-.125-.091l.182-.575-.485-.358a.081.081 0 0 1 .047-.147l.603-.005.191-.572c.025-.074.13-.074.154 0ZM4.744 21.048l.191.572.603.005c.079 0 .111.1.048.146l-.485.359.182.575a.081.081 0 0 1-.125.09l-.491-.35-.49.35c-.064.046-.149-.016-.125-.09l.182-.575-.485-.359c-.063-.046-.031-.146.047-.146l.603-.005.191-.572c.025-.074.13-.074.154 0ZM7.068 10.599l.191.573.603.004c.078.001.11.1.048.147l-.486.358.182.575a.081.081 0 0 1-.124.091l-.491-.351-.491.351c-.063.045-.148-.016-.125-.091l.182-.575-.485-.358a.082.082 0 0 1 .048-.147l.603-.004.191-.573c.024-.074.129-.074.154 0ZM7.068 13.593l.191.572.603.005c.078 0 .11.1.048.146l-.486.359.182.575c.024.074-.061.136-.124.091l-.491-.351-.491.351c-.063.045-.148-.017-.125-.091l.182-.575-.485-.359c-.063-.046-.03-.146.048-.146l.603-.005.191-.572c.024-.074.129-.074.154 0ZM7.068 16.587l.191.572.603.004c.078.001.11.101.048.147l-.486.358.182.576c.024.074-.061.136-.124.09l-.491-.351-.491.351c-.063.046-.148-.016-.125-.09l.182-.576-.485-.358c-.063-.046-.03-.146.048-.147l.603-.004.191-.572c.024-.075.129-.075.154 0ZM7.068 19.58l.191.572.603.005c.078.001.11.1.048.147l-.486.358.182.575a.081.081 0 0 1-.124.091l-.491-.351-.491.351c-.063.045-.148-.016-.125-.091l.182-.575-.485-.358a.082.082 0 0 1 .048-.147l.603-.005.191-.572c.024-.074.129-.074.154 0ZM7.068 22.574l.191.572.603.004c.078.001.11.101.048.147l-.486.359.182.575c.024.074-.061.136-.124.09l-.491-.35-.491.35c-.063.046-.148-.016-.125-.09l.182-.575-.485-.359c-.063-.046-.03-.146.048-.147l.603-.004.191-.572c.024-.074.129-.074.154 0ZM9.392 12.067l.19.572.604.005c.078.001.11.1.047.147l-.485.358.182.575c.024.074-.061.136-.125.091l-.491-.351-.49.351c-.064.045-.149-.017-.125-.091l.182-.575-.485-.358a.081.081 0 0 1 .047-.147l.604-.005.19-.572a.082.082 0 0 1 .155 0ZM9.392 15.061l.19.572.604.004c.078.001.11.101.047.147l-.485.359.182.575c.024.074-.061.136-.125.09l-.491-.35-.49.35c-.064.046-.149-.016-.125-.09l.182-.575-.485-.359a.081.081 0 0 1 .047-.147l.604-.004.19-.572a.082.082 0 0 1 .155 0ZM9.392 18.054l.19.572.604.005c.078.001.11.1.047.147l-.485.358.182.575c.024.075-.061.136-.125.091l-.491-.351-.49.351c-.064.045-.149-.016-.125-.091l.182-.575-.485-.358a.081.081 0 0 1 .047-.147l.604-.005.19-.572a.082.082 0 0 1 .155 0ZM9.392 21.048l.19.572.604.005c.078 0 .11.1.047.146l-.485.359.182.575c.024.074-.061.136-.125.09l-.491-.35-.49.35c-.064.046-.149-.016-.125-.09l.182-.575-.485-.359c-.063-.046-.031-.146.047-.146l.604-.005.19-.572a.082.082 0 0 1 .155 0ZM11.715 10.599l.191.573.603.004c.078.001.111.1.048.147l-.486.358.183.575c.023.075-.062.136-.125.091l-.491-.351-.491.351c-.063.045-.148-.016-.125-.091l.182-.575-.485-.358a.082.082 0 0 1 .048-.147l.603-.004.191-.573a.081.081 0 0 1 .154 0ZM11.715 13.593l.191.572.603.005c.078 0 .111.1.048.146l-.486.359.183.575c.023.074-.062.136-.125.091l-.491-.351-.491.351c-.063.045-.148-.017-.125-.091l.182-.575-.485-.359c-.063-.046-.03-.146.048-.146l.603-.005.191-.572a.081.081 0 0 1 .154 0ZM11.715 16.587l.191.572.603.004c.078.001.111.101.048.147l-.486.358.183.576c.023.074-.062.136-.125.09l-.491-.351-.491.351c-.063.045-.148-.016-.125-.091l.182-.575-.485-.358a.082.082 0 0 1 .048-.147l.603-.004.191-.573a.081.081 0 0 1 .154.001ZM11.715 19.58l.191.572.603.005c.078.001.111.1.048.147l-.486.358.183.575c.023.075-.062.136-.125.091l-.491-.351-.491.351c-.063.045-.148-.016-.125-.091l.182-.575-.485-.358a.082.082 0 0 1 .048-.147l.603-.005.191-.572a.081.081 0 0 1 .154 0ZM11.715 22.574l.191.572.603.004c.078.001.111.101.048.147l-.486.359.183.575c.023.074-.062.136-.125.09l-.491-.35-.491.35c-.063.046-.148-.016-.125-.09l.182-.575-.485-.359c-.063-.046-.03-.146.048-.147l.603-.004.191-.572a.081.081 0 0 1 .154 0ZM14.039 12.067l.19.572.604.005c.078.001.11.1.047.147l-.485.358.182.575c.024.074-.061.136-.125.091l-.49-.351-.491.351a.082.082 0 0 1-.125-.091l.182-.575-.485-.358a.081.081 0 0 1 .047-.147l.604-.005.19-.572a.082.082 0 0 1 .155 0ZM14.039 15.061l.19.572.604.004c.078.001.11.101.047.147l-.485.359.182.575c.024.074-.061.136-.125.09l-.49-.35-.491.35a.081.081 0 0 1-.125-.09l.182-.575-.485-.359a.081.081 0 0 1 .047-.147l.604-.004.19-.572a.082.082 0 0 1 .155 0ZM14.039 18.054l.19.572.604.005c.078.001.11.1.047.147l-.485.358.182.575c.024.075-.061.136-.125.091l-.49-.351-.491.351a.082.082 0 0 1-.125-.091l.182-.575-.485-.358a.081.081 0 0 1 .047-.147l.604-.005.19-.572a.082.082 0 0 1 .155 0ZM14.039 21.048l.19.572.604.005c.078 0 .11.1.047.146l-.485.359.182.575c.024.074-.061.136-.125.09l-.49-.35-.491.35a.081.081 0 0 1-.125-.09l.182-.575-.485-.359c-.063-.046-.031-.146.047-.146l.604-.005.19-.572a.082.082 0 0 1 .155 0ZM16.362 10.599l.191.573.603.004c.078.001.111.1.048.147l-.485.358.182.575c.023.075-.062.136-.125.091l-.491-.351-.491.351a.081.081 0 0 1-.124-.091l.182-.575-.486-.358a.082.082 0 0 1 .048-.147l.603-.004.191-.573a.081.081 0 0 1 .154 0ZM16.362 13.593l.191.572.603.005c.078 0 .111.1.048.146l-.485.359.182.575c.023.074-.062.136-.125.091l-.491-.351-.491.351c-.063.045-.148-.017-.124-.091l.182-.575-.486-.359c-.062-.046-.03-.146.048-.146l.603-.005.191-.572a.081.081 0 0 1 .154 0ZM16.362 16.587l.191.572.603.004c.078.001.111.101.048.147l-.485.358.182.576c.023.074-.062.136-.125.09l-.491-.351-.491.351c-.063.046-.148-.016-.124-.09l.182-.576-.486-.358c-.062-.046-.03-.146.048-.147l.603-.004.191-.572a.08.08 0 0 1 .154 0ZM16.362 19.58l.191.572.603.005c.078.001.111.1.048.147l-.485.358.182.575c.023.075-.062.136-.125.091l-.491-.351-.491.351a.081.081 0 0 1-.124-.091l.182-.575-.486-.358a.082.082 0 0 1 .048-.147l.603-.005.191-.572a.081.081 0 0 1 .154 0ZM16.362 22.574l.191.572.603.004c.078.001.111.101.048.147l-.485.359.182.575c.023.074-.062.136-.125.09l-.491-.35-.491.35c-.063.046-.148-.016-.124-.09l.182-.575-.486-.359c-.062-.046-.03-.146.048-.147l.603-.004.191-.572a.081.081 0 0 1 .154 0ZM18.686 12.067l.191.572.603.005c.078.001.11.1.047.147l-.485.358.182.575c.024.074-.061.136-.125.091l-.49-.351-.491.351a.082.082 0 0 1-.125-.091l.182-.575-.485-.358a.081.081 0 0 1 .048-.147l.603-.005.191-.572c.024-.074.129-.074.154 0ZM18.686 15.061l.191.572.603.004c.078.001.11.101.047.147l-.485.359.182.575c.024.074-.061.136-.125.09l-.49-.35-.491.35a.081.081 0 0 1-.125-.09l.182-.575-.485-.359c-.063-.046-.031-.146.048-.147l.603-.004.191-.572c.024-.074.129-.074.154 0ZM18.686 18.054l.191.572.603.005c.078.001.11.1.047.147l-.485.358.182.575c.024.075-.061.136-.125.091l-.49-.351-.491.351a.082.082 0 0 1-.125-.091l.182-.575-.485-.358a.081.081 0 0 1 .048-.147l.603-.005.191-.572c.024-.074.129-.074.154 0ZM18.686 21.048l.191.572.603.005c.078 0 .11.1.047.146l-.485.359.182.575c.024.074-.061.136-.125.09l-.49-.35-.491.35a.081.081 0 0 1-.125-.09l.182-.575-.485-.359a.08.08 0 0 1 .048-.146l.603-.005.191-.572c.024-.074.129-.074.154 0ZM21.009 10.599l.191.573.603.004c.079.001.111.1.048.147l-.485.358.182.575a.082.082 0 0 1-.125.091l-.491-.351-.49.351c-.064.045-.149-.016-.125-.091l.182-.575-.485-.358a.081.081 0 0 1 .047-.147l.603-.004.191-.573c.025-.074.13-.074.154 0ZM21.009 13.593l.191.572.603.005c.079 0 .111.1.048.146l-.485.359.182.575a.082.082 0 0 1-.125.091l-.491-.351-.49.351c-.064.045-.149-.017-.125-.091l.182-.575-.485-.359c-.063-.046-.031-.146.047-.146l.603-.005.191-.572c.025-.074.13-.074.154 0ZM21.009 16.587l.191.572.603.004c.079.001.111.101.048.147l-.485.358.182.576a.081.081 0 0 1-.125.09l-.491-.351-.49.351c-.064.046-.149-.016-.125-.09l.182-.576-.485-.358a.081.081 0 0 1 .047-.147l.603-.004.191-.572c.025-.075.13-.075.154 0ZM21.009 19.58l.191.572.603.005c.079.001.111.1.048.147l-.485.358.182.575a.082.082 0 0 1-.125.091l-.491-.351-.49.351c-.064.045-.149-.016-.125-.091l.182-.575-.485-.358a.081.081 0 0 1 .047-.147l.603-.005.191-.572c.025-.074.13-.074.154 0ZM21.009 22.574l.191.572.603.004c.079.001.111.101.048.147l-.485.359.182.575a.081.081 0 0 1-.125.09l-.491-.35-.49.35c-.064.046-.149-.016-.125-.09l.182-.575-.485-.359a.081.081 0 0 1 .047-.147l.603-.004.191-.572c.025-.074.13-.074.154 0Z" style="fill: rgb(245, 245, 245);" class="fills" data-testid="svg-path"/></g></svg>