<svg width="50" xmlns="http://www.w3.org/2000/svg" height="50" fill="none"><g data-testid="flag-for-flag-venezuela-svgrepo-com" class="iconify iconify--twemoji" style="fill: rgb(0, 0, 0);"><path d="M0 37.5a5.556 5.556 0 0 0 5.556 5.556h38.888A5.556 5.556 0 0 0 50 37.5v-5.556H0V37.5Z" style="fill: rgb(207, 20, 43);" class="fills" data-testid="svg-path"/><path d="M0 31.944h50V18.056H0v13.888Zm35.161-4.93.374 1.028 1.093-.038-.861.674.373 1.028-.907-.612-.861.674.302-1.051-.907-.611 1.093-.038.301-1.054Zm-1.689-2.313 1.014-.409-.579.926.703.838-1.061-.264-.58.926-.076-1.09-1.061-.264 1.014-.41-.077-1.09.703.837Zm-4.028-2.979.948.547.812-.732-.228 1.07.948.547-1.088.114-.228 1.07-.444-.999-1.088.114.813-.732-.445-.999Zm-2.78-.684.514-.966.153 1.082 1.076.19-.982.48.153 1.082-.76-.787-.985.48.514-.966-.759-.786 1.076.191Zm-3.993.116.153-1.082.514.966 1.076-.191-.76.786.514.966-.982-.48-.76.787.153-1.082-.982-.48 1.074-.19Zm-3.874.383.813.732.946-.547-.445.999.813.732-1.088-.114-.444.999-.228-1.07-1.088-.114.948-.547-.227-1.07Zm-3.283 2.755 1.014.409.703-.837-.077 1.09 1.014.41-1.061.264-.076 1.09-.58-.926-1.061.264.703-.838-.579-.926Zm-1.05 3.748.373-1.028.302 1.052 1.093.037-.907.611.301 1.052-.861-.674-.907.611.374-1.027-.861-.674 1.093.04Z" style="fill: rgb(0, 36, 125);" class="fills" data-testid="svg-path"/><path d="M44.444 6.944H5.556A5.556 5.556 0 0 0 0 12.5v5.556h50V12.5a5.556 5.556 0 0 0-5.556-5.556Z" style="fill: rgb(255, 204, 0);" class="fills" data-testid="svg-path"/><path d="m25.833 22.599.982-.48.76.787-.153-1.082.984-.48-1.077-.19-.153-1.082-.512.966-1.078-.191.76.786Zm4.331.738.444.999.227-1.068 1.087-.115-.946-.546.227-1.069-.813.73-.946-.546.445.999-.813.732Zm1.668 2.027 1.061.264.076 1.09.58-.926 1.059.264-.702-.838.58-.926-1.014.409-.703-.837.077 1.09Zm2.842 3.35-.302 1.05.863-.672.905.611-.373-1.028.861-.672-1.092.037-.375-1.026-.301 1.05-1.092.039Zm-12.249-5.808.76-.787.982.48-.513-.966.76-.786-1.078.191-.512-.966-.153 1.082-1.077.19.984.48Zm-3.26.362.227 1.068.444-.999 1.088.116-.813-.732.445-.999-.946.546-.813-.731.227 1.07-.946.546Zm-2.714 2.524.58.926.076-1.09 1.061-.264-1.014-.41.077-1.09-.703.837-1.014-.409.58.926-.702.838Zm-2.591 3.911.905-.611.863.672-.302-1.05.906-.611-1.092-.039-.301-1.05-.375 1.026-1.092-.037.861.672Z" style="fill: rgb(255, 255, 255);" class="fills" data-testid="svg-path"/></g></svg>